<?xml version="1.0" standalone="no"?><!DOCTYPE svg PUBLIC "-//W3C//DTD SVG 1.1//EN" "http://www.w3.org/Graphics/SVG/1.1/DTD/svg11.dtd"><svg t="1741945687194" class="icon" viewBox="0 0 1024 1024" version="1.1" xmlns="http://www.w3.org/2000/svg" p-id="2991" data-spm-anchor-id="a313x.search_index.0.i0.1d283a81ZfWVtT" xmlns:xlink="http://www.w3.org/1999/xlink" width="200" height="200"><path d="M354.496 196.992Q276 229.984 217.504 288.992t-92 137.504-33.504 167.008 33.504 167.008 92 136.512 136.992 91.488 167.008 33.504T688 988.512t136.992-91.488 92.512-136.512 33.504-167.008-33.504-167.008-92.512-137.504T688 196.992t-166.496-32.992-167.008 32.992zM408 232q-4 0-2.496-3.008t3.008-8.992-0.992-8.992 0.512-4.992q15.008-4 31.008-7.488t31.008-5.504q52-6.016 105.504 0.992t100.512 28q176.992 83.008 230.496 253.504t-48.512 339.488q-24 36.992-56.512 67.488t-69.504 53.504-77.504 37.504-82.496 19.488q-192 16-322.016-103.488t-132-311.488q2.016-92 47.008-175.008t120-136.992q24.992-18.016 56.512-36.512t62.496-19.488q-4 14.016-8 26.016t-11.008 14.016 3.008 11.008l-8.992 24q6.016 4.992 8.512 3.008t3.008-2.496 3.488-0.512 3.008 3.008q-19.008 19.008-19.008 20.512t2.496 3.488 5.504-3.008 6.496-4.992 4 0.992 8.512 6.016q-2.016-26.016-3.008-28.992t4-8.512 2.016-13.504-6.016-8q-11.008 26.016-14.016 24.992 0.992-4.992 0.992-10.496t34.016-44.512l-4.992-4.992z m262.016 20.992Q667.008 256 662.528 256t-4-3.488-1.504 0.512-2.016 8 3.488 5.504-1.504 12-15.488 16.512-1.504 5.504 20-15.488 19.008-26.016q3.008-3.008 7.008-5.504t8-5.504q-3.008-4.992-7.488-3.488t-7.488-1.504-4-3.008-1.504 4.992-3.488 8z m14.976 41.024q0 0.992-2.016 5.504t2.016 3.008 4.512-3.008 2.496-5.504-0.992-8-4.992-4-1.504 5.504 0.512 6.496z m-264 6.976q3.008-4 0.512-8T418.496 288t-10.496 0z m303.008 79.008q-26.016-26.016-60.992-47.008-28-16.992-59.488-25.504t-64.512-10.496q-182.016-2.016-271.488 141.504t-2.496 306.496q15.008 24.992 34.016 47.008t42.016 39.008q40.992 28.992 72.512 39.488t80.512 16.512q32.992 0.992 66.496-2.016t65.504-15.008q98.016-42.016 150.496-131.488t34.496-196.512q-6.016-31.008-11.008-44.992t-18.016-39.008q8.992-4 10.016-4t3.488-3.008 4.992-3.008 3.008 6.496 2.496 8 3.008-4 0-16.512l-2.016-22.016 16.992-8.992q0-2.016-2.496-4.992t3.008-1.504 20.512 3.008 18.016-4-0.512-10.016-13.504-8.992-22.016-7.488q2.016-8.992-2.496-4.512t-1.504 8.512 4.512 4 15.488 2.016q2.016 7.008 4.992 6.496t4-0.512 6.016 3.008h-56.992q-0.992 4.992 4.512 8t-5.504 8.992l4.992 19.008q-4-2.016-6.016-6.496t-8.512-9.504-15.488-6.016v28.992h-3.008q-22.016-32.992-48-59.008z m-268 94.016h-6.016l-51.008-47.008-48.992 99.008h-72l0.992 32.992h54.016l-12.992 28 0.992 3.008h39.008l16-31.008h35.008l0.992 2.016-11.008 27.008 36 3.008 18.016-32h43.008l-20 36.992 27.008 0.992v47.008l-3.008 2.016q-26.016 0-28.992-0.512t-24-10.496q-20.992 14.016-44.992 16t-34.016-7.008-19.008-2.016-28.992 5.504-40-11.488q-8.992 23.008 13.504 31.488t40.512 5.504q7.008-2.016 14.016-5.504l12.992-6.496q18.016 16 43.008 16.512t32.512-10.016 8.992-10.496 8.992 7.008 28.992 9.504 30.016-4.992 11.008-7.488 3.488 1.504 3.488 4.512 6.496 6.016q16.992 10.016 39.488 7.008t28-12 7.008-8.992 8 9.504 32.992 12 34.016-7.008 9.504-9.504 14.016 9.504 44.512 3.008 20.512-37.504q-23.008 14.016-40.992 13.504t-28.992-7.008-21.504 2.016-30.496 4.992-40-17.504q-12.992 12-23.008 14.496t-30.016 2.496l-0.992-62.016h28.992l7.008 14.016h44.992q-4-11.008-3.008-14.016 60-2.016 30.016-0.992t8 18.016q8.992 3.008 18.016 2.016l18.016-2.016-7.008-16.992h30.016v-34.016l-50.016-2.016-71.008-138.016-27.008 46.016-4.992 2.016-60-119.008z m-252.512-88q-7.488-10.016-18.496-4 26.016 27.008 27.488 26.016t0-6.496-8.992-15.488zM240 411.008q4-8.992 4.512-10.496t0.992-7.008-14.496-5.504z m-20 33.984q0.992 0.992-0.992 0.992t-4-3.008-2.496-4-3.008-2.496-8.512 1.504l11.008 23.008q12.992 0 14.496-6.496t1.504-19.008-1.504-19.008-3.488-10.496z m300 46.016v34.016h-48l48.992-95.008q3.008-4 6.016-4l39.008 99.008h-23.008v-35.008z m-333.504 140.48q-4.512-16.512-19.488-12.512-12 7.008-11.008 19.008t-0.992 17.504-10.496 4-10.016-10.496 4-14.496 4.992-8.512-10.496 6.016-1.504 24.992 24.512 10.016q8.992-8 8-19.488t0.992-16.512 10.016-3.488 8.992 9.504-4 12.512-4.512 6.496 2.016 2.496 7.488-4.992 1.504-22.016z m675.52 3.008q4 1.504 20 19.488l-32 10.016-0.992 7.008q26.016-8.992 30.016-10.016t31.008 4l0.992-6.016q-23.008-6.016-26.016-8.992t-23.008-27.008q-4 10.016 0 11.488zM140.992 687.008q2.016 6.016 4.992 6.016l23.008-8.992 11.008 28-24 10.016q0 3.008 4 6.016l51.008-20.992Q208 702.08 206.496 702.08t-6.016 2.496-5.504 2.496h-5.504l-14.496-26.016 20-8q0.992-2.016-0.992-8z m691.008 25.984q2.016 4 3.488 3.488t4.512-7.008 9.504-7.008 8.992 2.016 31.488 17.504l4-6.016-44.992-22.016q-0.992-0.992 2.496-8.512t-1.504-11.488z m-8 16q50.016 28.992 52.992 23.008l-50.016-28.992z m-661.984 10.016l3.008 6.016 20-0.992 10.016 20.992q-8 8.992-9.504 9.504t-0.512 4.512 4 4.992l36-48.992-4.992-6.016z m661.472 8.48q-3.488-0.512-6.496 0.512-11.008 4.992-15.008 17.504t8 20.512q7.008 2.016 16-6.496t17.504-8.992 10.016 1.504 1.504 8.512-7.488 10.496-12.992 3.488-7.008 2.016 5.504 6.496 20.512-8.992 4.512-27.008q-11.008-11.008-20-3.488t-18.016 13.504q-3.008 0.992-6.016 0l-4.512-1.504-2.496-6.016 4.992-10.016 11.488-4.512 7.008-2.016 0.512-3.488-2.496-1.504-4.992-0.512z m-419.488 15.008q-8 7.488-8.512 12.992t7.488 1.504 12-4V832h8v-76.992q-11.008 0-19.008 7.488z m68.512 71.008q12.512 4.512 24.512-8.512 8-11.008 8.992-26.496t-4-27.488q-0.992-4-4-8t-7.008-6.016q-31.008-11.008-35.008 19.488t28 27.488q3.008 0 6.496-2.496t4.992-3.488 1.504 7.488-5.504 14.496-14.016 4.512-10.496-5.504-6.496-4-2.496 7.008 14.496 11.488z m53.504-64.992q-3.008 6.496-4 20.512t1.504 22.496 6.496 14.016 7.008 6.496 10.496 0.512 12.992-5.504 8-12.512 1.504-24.512-3.008-21.504-5.504-8-12.992-4.512-14.496 2.496-8 10.016z m82.496-6.016q-6.496 6.496-10.016 8.992t-3.488 9.504l19.008-8v58.016l8.992 0.992v-76.992q-8 0.992-14.496 7.488z m-414.496 31.52l4 4.992 32-26.016h3.008l-15.008 52 4.992 4 43.008-36-4-4-32 26.016h-3.008l16-51.008-6.016-6.016z m606.976-3.52q-7.008-9.504-19.008-0.512-6.016 6.016-11.488 12t-11.488 12.992l40.992 39.008 4-6.016-16.992-16.992q11.008-12.992 14.016-12t28.992 4q4-4 3.488-5.504t-30.496-4.512q4.992-12.992-2.016-22.496z m-526.976 18.496q-24.992 3.008-31.008 26.016-0.992 12 8.992 27.008t24 8.992q4-2.016 6.496-5.504t4-4.512 2.496-6.016l-14.016-14.016q-6.016 3.008 0 8.512t3.488 8.992-12.992 3.008-16-16.512 13.504-26.016q8-3.008 18.016-0.992t14.016 11.008q0.992 4 0 7.488t-0.992 5.504 2.496 2.496 2.496-19.008-24.992-16.512z m446.976 38.016l35.008 44 34.016-26.016-4.992-4q-16.992 16-22.496 19.008t-16.512-15.008l24.992-18.016q-2.016-3.008-6.016-3.488t-5.504 1.504-14.496 15.008q-4.992 0-15.008-12.992l26.016-20.992-3.008-6.016z m-437.984 40q6.016 4 11.488 8.512t12.512 7.488q18.016 6.016 28.512-10.016t7.488-32q-3.008-7.008-14.496-13.504t-14.496-8.512z m437.984 17.984h-3.008l-36.992-34.016-7.008 3.008L720 912.992l7.008-3.008-8.992-60.992q-4 3.008 3.008 56z m-368-21.984q-6.016 6.016-8 11.008t-1.504 15.008 4.992 15.008 8 7.488 14.016 1.504 16-6.016 8.512-11.488 2.496-16-6.016-15.488-9.504-8-8.512-2.016-9.504 1.504-11.008 7.488z m309.024-2.016l22.016 50.016q0.992 0.992 7.008-2.016l-20-46.016q-4.992-6.016-8.992-2.016z m-17.024 9.024l12.992 39.008h-3.008l-39.008-32q-8 2.016-7.008 9.504t2.496 10.496 12.512 35.008q6.016 0 6.016-4l-12-36h4.992l36.992 30.016 8-3.008-18.016-52.992q-3.008 0-4.992 4z m-248 56.992h7.008q10.016-40 12.992-40l16 50.016 7.008 0.992 15.008-55.008-6.016-0.992q-10.016 40-12.992 40l-16-46.016q-3.008-4.992-8-4.992z m200-4.992q0.992 27.008-28 8.992L560 907.008q-4.992 2.016-4.992 8t1.504 19.488 9.504 23.488q8 7.008 20.512 4.992t17.504-12q3.008-12-0.512-28t-5.504-20.992H592q4 12.992 4.992 40z m-130.496-25.024q-22.496 28 11.488 48 4 2.016 8.992 1.504t8.992-0.992 7.488-2.496 6.496-3.008l0.992-20.992q-8-3.008-9.504-3.008h-7.488l-5.504 4 8 4.512 7.488 4.992-4.992 8.512q-4.992 0-10.016 0.992t-10.016-0.992q-27.008-14.016-8.512-36.992t27.488-8.992 12 13.504-8.992-18.496-34.496 10.016z m84.992-599.488q37.504 1.504 75.488 18.496 112.992 52.992 151.488 152.992T774.976 704h-512q-8.992-24-15.488-47.488T240 607.008q-0.992-114.016 61.504-188.992t171.488-100.992q40.992-0.992 78.496 0.512z m242.016 115.008q1.504 0.512 2.496 4.992t-1.504 6.496-7.488 2.016-8-10.496 2.016-10.496q11.008 7.008 12.512 7.488z m-359.488 73.504l-6.016 16.992-34.016 2.016 16.992-36.992h4z m217.984 48.992H624l-22.016-54.016q8.992-8 10.016-8.992t8-0.992z m-72.992 0h-27.008l14.016-24.992h3.008z m156.48 213.984q-8.512 11.008-34.496 35.008-68.992 62.016-159.008 66.016t-168.992-39.008q-31.008-19.008-54.016-44.992t-43.008-55.008h486.016q-18.016 27.008-26.496 38.016z m-533.472-12q-4 0-8.512-7.488t-1.504-10.496L218.016 736z m292.48 24.512q-0.512 8.512-4.512 12t-8 3.488-8.992-2.016-7.488-6.496-0.992-11.488 4.992-11.008 9.504-4 11.008 5.504 4.512 14.016z m64.512-10.496q3.008 6.016 2.016 24.992t-4.512 24-8.992 4.992-10.016-3.488-6.016-9.504-0.992-22.016 4.992-22.016 9.504-6.016 8 1.504 6.016 7.488z m223.008 27.008q8-7.008 12.992-2.496t4.992 9.504-2.016 6.016-14.016 14.016q-4.992 0-16-12 6.016-8 14.016-15.008z m-456.512 56q3.488 2.016 7.488 4 8 8.992 3.008 20.992T320.992 896q-8 3.008-15.488-1.504t-13.504-8.512l22.016-36.992q4 0 6.016 1.504t5.504 3.488z m61.984 36q4.512 6.016 4.512 10.496t-3.008 11.008-7.008 10.496-12 4-12.992-3.488-6.496-6.496-1.504-8.512 1.504-9.504 6.496-9.504 12-6.496 10.496 0.512 8 7.488z" p-id="2992" data-spm-anchor-id="a313x.search_index.0.i1.1d283a81ZfWVtT"></path></svg>